<svg width="200" height="123" viewBox="0 0 200 123" fill="none" xmlns="http://www.w3.org/2000/svg">
<path fill-rule="evenodd" clip-rule="evenodd" d="M20 0C8.95431 0 0 8.95431 0 20V103C0 114.046 8.95431 123 20 123H150.586C141.75 118.615 134.952 111.267 132.04 102.24V97.2H153.16C154.84 104.4 160.96 108.48 169.84 108.48C179.92 108.48 185.56 104.52 185.56 97.68C185.56 90.96 178.48 87 167.56 87C162.64 87 158.2 87.96 154.6 89.52H136.6L140.92 48H200V20C200 8.9543 191.046 0 180 0H20ZM200 65.76H156.64L156.04 72C160.48 70.92 165.52 70.2 169.48 70.2C182.979 70.2 193.683 74.3265 200 81.4733V65.76Z" fill="url(#paint0_linear_51_288)"/>
<defs>
<linearGradient id="paint0_linear_51_288" x1="0" y1="0" x2="200" y2="123" gradientUnits="userSpaceOnUse">
<stop stop-color="#3FDB45"/>
<stop offset="1" stop-color="#037F00"/>
</linearGradient>
</defs>
</svg>
